<svg viewBox="0 0 39 39" fill="none" xmlns="http://www.w3.org/2000/svg">
<g clip-path="url(#clip0_20_3)">
<path d="M35.75 1.62525V21.1254C35.75 22.5807 35.4665 24.0239 34.8995 25.454C34.3323 26.8848 33.6297 28.1539 32.7924 29.2631C31.9539 30.3717 30.955 31.4503 29.7962 32.5C28.6361 33.5499 27.5658 34.4213 26.5838 35.1154C25.6022 35.8091 24.5781 36.4652 23.5119 37.0833C22.4454 37.701 21.6876 38.1197 21.2392 38.3399C20.7909 38.5603 20.431 38.7296 20.1602 38.848C19.957 38.9491 19.7367 39 19.5001 39C19.263 39 19.0431 38.9491 18.8398 38.848C18.5689 38.7296 18.2093 38.5603 17.761 38.3399C17.312 38.1197 16.5549 37.701 15.4883 37.0833C14.4218 36.4652 13.3976 35.8091 12.4158 35.1154C11.4342 34.4213 10.3636 33.5499 9.20405 32.5C8.04449 31.4503 7.04605 30.3717 6.20825 29.2631C5.37032 28.1539 4.66773 26.8848 4.1006 25.454C3.53346 24.0239 3.24996 22.5807 3.24996 21.1254V1.62525C3.24996 1.1851 3.41097 0.80394 3.7326 0.48267C4.05399 0.161034 4.43507 0 4.87497 0H34.1257C34.5652 0 34.9456 0.161034 35.2675 0.48267C35.5893 0.80394 35.75 1.1851 35.75 1.62525ZM30.8748 21.1254V4.87505H19.5001V33.744C21.514 32.6776 23.3172 31.5182 24.9085 30.2657C28.8859 27.1513 30.8748 24.1044 30.8748 21.1254Z" fill="#EEEEEE"/>
</g>
<defs>
<clipPath id="clip0_20_3">
<rect width="39" height="39" fill="white"/>
</clipPath>
</defs>
</svg>
