<svg viewBox="0 0 37 39" fill="none" xmlns="http://www.w3.org/2000/svg">
<path d="M31.5685 6.33064L22.7634 1.24987C19.8825 -0.416624 16.3523 -0.416624 13.4714 1.24987L4.62571 6.33064C1.78536 7.99713 0 11.0862 0 14.3786V24.5807C0 27.9138 1.78536 30.9622 4.62571 32.6287L13.4308 37.7501C16.3118 39.4166 19.8418 39.4166 22.7228 37.7501L31.5279 32.6287C34.4088 30.9622 36.1536 27.9138 36.1536 24.5807V14.3786C36.2347 11.0862 34.4494 7.99713 31.5685 6.33064ZM18.0971 28.5641C13.1061 28.5641 9.04855 24.4995 9.04855 19.5C9.04855 14.5005 13.1061 10.4359 18.0971 10.4359C23.088 10.4359 27.1862 14.5005 27.1862 19.5C27.1862 24.4995 23.1286 28.5641 18.0971 28.5641Z" fill="#EEEEEE"/>
</svg>
