<svg viewBox="0 0 40 39" fill="none" xmlns="http://www.w3.org/2000/svg">
<path d="M1.14316 13.9415C1.14316 13.9415 0.196276 13.2638 1.33254 12.3589L3.97988 10.0086C3.97988 10.0086 4.73739 9.21727 5.53829 9.9067L29.968 28.2707V37.0767C29.968 37.0767 29.9561 38.4594 28.1689 38.3067L1.14316 13.9415Z" fill="white"/>
<path d="M7.43996 19.6175L1.14316 25.3014C1.14316 25.3014 0.496125 25.7793 1.14316 26.6333L4.06668 29.2735C4.06668 29.2735 4.76106 30.0138 5.78685 29.1716L12.4624 24.1458L7.43996 19.6175Z" fill="#E3DFDF"/>
<path d="M18.4949 19.6645L30.0429 10.9095L29.968 2.15058C29.968 2.15058 29.4748 0.238968 27.8296 1.23395L12.4624 15.1205L18.4949 19.6645Z" fill="#E3DFDF"/>
<path d="M28.1689 38.3184C28.8396 39 29.6523 38.7767 29.6523 38.7767L38.6517 34.3737C39.8037 33.5942 39.642 32.6266 39.642 32.6266V6.33416C39.642 5.17858 38.4505 4.77902 38.4505 4.77902L30.6505 1.04589C28.9461 -8.72123e-06 27.8296 1.23392 27.8296 1.23392C27.8296 1.23392 29.2657 0.207605 29.9679 2.15055V36.916C29.9679 37.155 29.9167 37.39 29.8141 37.6015C29.6089 38.0128 29.1631 38.3967 28.0939 38.2361L28.1689 38.3184Z" fill="white"/>
</svg>
