<svg viewBox="0 0 97 94" version="1.1" xmlns="http://www.w3.org/2000/svg" xmlns:xlink="http://www.w3.org/1999/xlink" xml:space="preserve" style="fill-rule:evenodd;clip-rule:evenodd;stroke-linejoin:round;stroke-miterlimit:2;">
    <g transform="matrix(1.96406,0,0,1.96406,-51.9577,-79.6816)">
        <path d="M49.84,56.154C37.669,56.976 33.063,50.708 29.521,47.578C27.52,66.905 32.98,69.642 38.899,72.375C44.817,75.108 58.947,69.58 67.574,72.829C67.137,59.069 62.01,55.333 49.84,56.154Z" style="fill:rgb(238,238,238);fill-rule:nonzero;"/>
    </g>
    <g transform="matrix(1.96406,0,0,1.96406,-51.9577,-79.6816)">
        <path d="M70.37,45L50.892,45C51.756,50.674 57.297,50.674 57.297,50.674L60.175,50.674L56.217,78.374L47.246,78.374C47.246,80.313 49.583,84 52.366,84L66.748,84C67.291,83.952 68.412,83.354 68.547,81.343C68.681,79.332 66.971,78.525 66.1,78.374L62.07,78.374L65.908,50.674C67.251,50.722 70.173,50.789 71.113,50.674C72.289,50.53 73.296,49.836 73.296,47.514C73.296,45.656 71.345,45.064 70.37,45Z" style="fill:white;fill-rule:nonzero;"/>
    </g>
    <g transform="matrix(1.96406,0,0,1.96406,-51.9577,-79.6816)">
        <path d="M36.99,57.253C33.898,55.562 30.314,50.639 29.552,47.38C29.199,49.614 28.401,57.729 29.78,61.265C31.505,65.685 37.198,69.312 41.873,69.312C46.547,69.312 56.084,67.871 60.551,69.024C64.125,69.947 66.757,71.178 67.574,72.964C66.694,61.669 58.034,60.763 50.703,60.256C45.841,59.92 40.855,59.367 36.99,57.253Z" style="fill:rgb(238,238,238);fill-opacity:0.7;fill-rule:nonzero;"/>
    </g>
    <g transform="matrix(1.96406,0,0,1.96406,-51.9577,-79.6816)">
        <path d="M37.213,67.355C31.453,65.166 29.909,56.339 29.577,47.578C25.759,74.34 41.861,75.06 49.061,73.452C56.261,71.844 62.133,71.387 67.673,72.972C65.93,70.307 63.814,68.747 57.734,68.435C51.655,68.123 44.413,70.091 37.213,67.355Z" style="fill:rgb(238,238,238);fill-rule:nonzero;"/>
    </g>
</svg>
