<svg xmlns="http://www.w3.org/2000/svg" xmlns:xlink="http://www.w3.org/1999/xlink" preserveAspectRatio="xMidYMid" width="892" height="307" viewBox="0 0 892 307">
  <defs>
    <style>
      .cls-1 {
        fill: #fff;
        filter: url(#color-overlay-1);
        fill-rule: evenodd;
      }
    </style>

    <filter id="color-overlay-1" filterUnits="userSpaceOnUse">
      <feFlood flood-color="#eee"/>
      <feComposite operator="in" in2="SourceGraphic"/>
      <feBlend in2="SourceGraphic" result="solidFill"/>
    </filter>
  </defs>
  <path d="M454.168,217.041 C436.877,216.625 420.002,216.416 403.336,216.416 C354.341,216.416 308.151,218.251 266.712,221.356 C268.770,236.092 277.911,242.167 297.290,241.624 C317.082,240.999 347.497,227.249 361.872,217.250 C337.081,240.166 303.957,246.416 296.665,247.249 C294.374,247.457 292.291,247.666 290.207,247.666 C272.330,247.666 258.962,238.515 254.517,222.321 C146.526,231.262 73.726,248.840 73.135,264.332 C73.135,266.415 76.052,268.707 81.469,270.373 C60.844,269.332 51.261,265.373 51.261,258.915 C50.986,248.269 68.426,239.051 98.035,231.475 C95.516,230.286 93.545,227.375 93.545,224.333 C93.545,197.667 200.209,71.628 200.209,42.046 C200.209,32.254 190.626,30.587 182.918,30.587 C124.586,30.587 28.547,128.502 28.547,141.626 C28.547,144.126 30.839,145.376 32.714,145.376 C34.797,145.376 40.838,144.335 42.922,143.710 C42.922,145.585 30.422,150.585 25.630,150.585 C18.964,150.585 14.589,145.376 14.589,139.127 C14.589,105.586 120.628,25.379 182.918,25.379 C202.709,25.379 213.334,35.379 213.334,52.462 C213.334,72.253 178.752,122.460 151.044,159.959 C211.043,92.669 264.166,54.754 273.541,54.754 C280.207,54.754 291.041,61.212 292.082,69.545 C291.249,68.295 288.957,67.878 287.499,67.878 C279.166,67.878 226.667,144.126 205.001,190.792 C247.500,119.544 344.373,45.587 358.331,45.587 C365.414,45.587 375.205,56.629 376.038,61.420 C374.164,60.170 371.247,60.170 369.372,60.170 C351.078,60.170 270.309,161.320 266.398,210.548 C303.507,208.514 343.082,207.458 383.128,207.458 C401.877,207.458 420.835,207.667 439.585,208.083 C520.208,210.166 761.660,225.583 877.699,282.456 C779.785,243.916 600.831,221.000 454.168,217.041 ZM311.665,90.169 C281.666,103.919 201.251,189.334 201.251,209.958 C201.251,213.916 186.876,206.833 186.876,198.292 C186.876,177.251 235.000,95.586 250.833,80.170 C221.876,95.794 180.002,135.377 150.211,168.084 C122.711,199.125 109.170,219.125 109.170,224.958 C109.170,227.666 121.670,221.000 120.836,221.833 C118.957,224.314 116.314,226.327 113.513,227.895 C149.330,220.362 198.065,214.752 252.948,211.336 C252.933,210.810 252.916,210.286 252.916,209.750 C252.916,169.542 293.957,107.461 311.665,90.169 ZM655.619,202.458 C650.827,202.458 644.786,194.542 644.786,190.584 C644.786,178.709 667.493,143.918 678.327,133.918 C640.411,160.168 618.745,196.208 612.911,196.208 C609.995,196.208 603.328,189.542 603.328,185.375 C603.328,177.459 619.370,147.460 633.328,134.752 C612.286,147.460 592.912,167.042 577.704,184.125 C574.162,188.084 571.871,190.792 570.412,192.667 C564.579,199.542 563.538,203.708 566.663,205.167 C560.413,206.625 554.996,200.167 553.330,194.333 C552.913,192.875 553.746,187.250 559.163,177.667 C564.400,167.802 570.850,157.160 577.592,147.310 C576.367,147.411 575.209,147.460 574.163,147.460 C571.038,147.460 568.955,147.043 567.913,146.626 C562.288,174.334 519.164,204.333 497.082,203.083 C487.499,202.458 481.249,194.542 481.249,186.625 C481.249,183.493 481.639,180.361 482.370,177.255 C465.324,190.628 446.346,202.458 431.876,202.458 C425.210,202.458 417.710,196.208 416.669,189.542 C416.633,189.259 416.607,188.960 416.586,188.654 C409.032,195.333 402.273,200.522 398.127,202.042 C395.419,203.083 393.336,202.250 391.461,201.208 C389.794,200.375 385.211,196.000 383.961,192.875 C383.752,192.459 383.336,192.042 383.336,189.750 C383.336,187.881 384.201,184.752 386.083,180.235 C372.833,192.514 360.018,202.458 353.335,202.458 C352.294,202.458 351.252,202.042 349.794,201.208 C346.877,199.542 342.919,195.167 342.919,191.417 C342.919,189.334 343.752,186.834 344.586,183.709 C347.085,176.001 352.710,166.418 356.669,161.209 C350.419,167.459 309.795,202.458 301.045,202.458 C300.628,202.458 299.587,202.042 299.170,201.833 C295.420,199.958 290.004,192.042 290.004,187.875 C290.004,165.168 337.711,118.710 376.043,118.710 C383.960,118.710 394.376,122.044 394.376,131.835 C394.376,135.377 392.501,138.918 390.418,141.626 C390.001,141.835 389.584,141.626 389.793,141.418 C390.834,139.543 392.084,137.043 392.084,133.918 C392.084,127.668 388.126,124.544 381.876,124.960 C369.793,125.585 354.585,134.335 341.044,145.793 C321.253,162.668 305.628,188.917 307.503,189.959 C307.920,190.167 308.336,190.167 308.961,189.959 C315.836,187.667 345.002,166.626 355.835,157.459 C359.585,154.126 373.127,141.001 378.335,138.085 C382.501,136.002 389.584,147.460 388.751,149.960 C387.710,147.876 368.960,170.584 362.710,183.917 C361.460,186.834 360.627,189.334 360.627,191.000 C367.659,188.991 379.474,179.865 390.915,169.967 C396.466,159.106 405.320,143.877 418.335,123.502 C431.251,103.294 444.584,85.169 455.417,71.003 C461.667,62.878 467.500,56.212 472.709,52.045 C475.833,49.545 478.542,47.879 480.417,47.879 C492.083,47.254 500.416,59.337 496.458,57.045 C489.167,53.712 475.625,73.295 466.459,84.545 C457.501,96.003 448.959,108.294 438.543,123.502 C420.418,151.001 404.794,177.459 399.794,190.792 C403.097,191.176 409.887,186.798 417.757,180.557 C420.293,171.693 427.613,158.639 440.210,146.418 C457.293,129.543 478.334,118.710 493.125,118.710 C497.917,118.710 505.000,125.794 505.000,128.918 C505.000,136.835 494.792,144.543 487.917,149.751 C487.500,150.168 486.458,149.751 486.875,149.126 C490.208,145.793 498.750,129.335 497.083,127.877 C474.792,128.293 433.960,175.376 433.960,189.959 C433.960,193.292 438.126,193.709 440.001,193.500 C451.439,192.257 468.516,181.739 484.723,169.961 C495.973,142.382 532.307,118.710 559.788,118.710 C567.705,118.710 571.038,121.002 572.496,122.252 C573.538,122.877 572.913,122.877 572.080,122.877 C569.997,122.669 568.330,122.252 566.872,122.252 C529.164,122.252 485.624,192.459 497.290,197.458 C508.956,202.250 538.747,168.917 552.705,147.668 C551.664,145.793 549.580,139.543 550.414,137.460 C551.039,135.377 557.288,129.127 559.997,128.918 C562.080,128.710 564.372,130.377 564.788,131.002 C568.663,137.324 573.544,142.034 581.565,141.645 C585.081,136.761 588.627,132.165 592.079,128.085 C594.995,124.544 597.912,121.627 600.203,119.752 C601.037,118.919 602.287,118.710 602.912,118.710 C608.120,118.710 616.036,126.835 616.036,132.043 C616.036,132.877 615.203,131.835 613.536,131.627 C612.078,131.418 609.162,133.502 606.453,136.835 C597.495,147.043 579.162,174.334 574.371,182.459 C587.704,164.751 632.703,124.127 641.452,122.252 C641.869,122.044 642.286,122.044 642.702,122.044 C646.869,122.044 653.744,132.460 651.661,134.543 C641.036,145.793 622.286,175.792 622.286,183.084 C641.869,158.293 681.451,119.752 690.201,119.752 C694.784,119.752 701.659,131.002 698.951,133.293 C693.743,137.460 661.244,182.667 661.244,191.834 C674.785,188.709 705.201,159.334 718.534,146.626 C719.992,145.585 721.034,147.251 720.409,147.876 C702.284,167.667 667.910,202.458 655.619,202.458 Z" class="cls-1"/>
</svg>
