<svg width="39" height="39" viewBox="0 0 39 39" fill="none" xmlns="http://www.w3.org/2000/svg">
<g clip-path="url(#clip0_14_229)">
<path d="M30.5217 13.2786C30.3903 7.64398 26.3945 2.85037 20.7938 0.918173C19.0134 0.306286 17.1434 -0.00404614 15.2609 -2.24041e-05C6.83263 -2.24041e-05 7.16634e-08 6.07296 7.16634e-08 13.5652C-0.00017262 15.1587 0.311764 16.7368 0.918196 18.2104C2.85463 12.6097 7.644 8.61389 13.2787 8.47824C13.3736 8.47824 13.4694 8.47824 13.5652 8.47824C16.831 8.47824 19.8281 9.77711 22.169 11.9408C22.7109 12.4432 23.2137 12.9862 23.673 13.5652C25.5314 15.8993 26.7608 18.8811 27.0601 22.1732C29.2229 19.8281 30.5217 16.831 30.5217 13.5652C30.5217 13.4694 30.5217 13.3744 30.5217 13.2786Z" fill="#EEEEEE"/>
<path d="M27.0592 21.745C26.7599 18.4529 25.5331 15.4711 23.6722 13.137C23.213 12.5596 22.7105 12.0179 22.169 11.5168C19.8281 9.35319 16.831 8.05432 13.5652 8.05432C13.4694 8.05432 13.3745 8.05432 13.2787 8.05432C7.644 8.18573 2.85039 12.1815 0.918196 17.7823C0.340681 16.3805 0.0293065 14.8834 7.16634e-08 13.3676C7.16634e-08 13.4338 7.16634e-08 13.4991 7.16634e-08 13.5652C-0.00017262 15.1587 0.311764 16.7368 0.918196 18.2104C2.85463 12.6097 7.644 8.61389 13.2787 8.47823C13.3736 8.47823 13.4694 8.47823 13.5652 8.47823C16.831 8.47823 19.8281 9.7771 22.169 11.9408C22.7109 12.4432 23.2137 12.9862 23.673 13.5652C25.5314 15.8993 26.7608 18.8811 27.0601 22.1732C29.2229 19.8281 30.5217 16.831 30.5217 13.5652C30.5217 13.4991 30.5217 13.4338 30.5217 13.3676C30.4607 16.5461 29.1728 19.4584 27.0592 21.745Z" fill="white"/>
<path d="M8.47827 25.7214C8.47827 25.6264 8.47827 25.5306 8.47827 25.4348C8.47827 22.169 9.77714 19.1719 11.9408 16.8311C14.4275 14.1401 18.0562 12.3147 22.169 11.9408C19.8281 9.77714 16.8311 8.47827 13.5652 8.47827C13.4694 8.47827 13.3745 8.47827 13.2787 8.47827C7.64401 8.60968 2.8504 12.6055 0.918204 18.2062C0.306316 19.9866 -0.00401562 21.8566 8.11344e-06 23.7391C8.11344e-06 32.1674 6.07299 39 13.5652 39C15.1587 39.0002 16.7369 38.6882 18.2105 38.0818C12.6097 36.1454 8.61392 31.356 8.47827 25.7214Z" fill="#EEEEEE"/>
<path d="M8.47826 25.7214C8.47826 25.6264 8.47826 25.5306 8.47826 25.4348C8.47826 22.169 9.77713 19.1719 11.9408 16.8311C14.4275 14.1401 18.0562 12.3147 22.169 11.9408C19.8281 9.77714 16.831 8.47827 13.5652 8.47827C13.4991 8.47827 13.4338 8.47827 13.3677 8.47827C16.5462 8.53677 19.4585 9.82462 21.745 11.9374C17.6322 12.3113 14.0035 14.1367 11.5169 16.8277C9.35322 19.1719 8.05435 22.169 8.05435 25.4348C8.05435 25.5306 8.05435 25.6256 8.05435 25.7214C8.18576 31.356 12.1816 36.1496 17.7823 38.0818C16.3805 38.6593 14.8835 38.9707 13.3677 39C13.4338 39 13.4991 39 13.5652 39C15.1587 39.0002 16.7369 38.6882 18.2105 38.0818C12.6097 36.1454 8.61392 31.356 8.47826 25.7214Z" fill="white"/>
<path d="M38.0818 20.7896C36.1454 26.3903 31.356 30.3861 25.7214 30.5217C25.6264 30.5217 25.5306 30.5217 25.4348 30.5217C22.169 30.5217 19.1719 29.2229 16.8311 27.0592C14.1401 24.5726 12.3147 20.9439 11.9408 16.8311C9.77714 19.1719 8.47827 22.169 8.47827 25.4348C8.47827 25.5306 8.47827 25.6256 8.47827 25.7214C8.60968 31.356 12.6055 36.1496 18.2062 38.0818C19.9866 38.6937 21.8566 39.004 23.7391 39C32.1674 39 39 32.927 39 25.4348C39.0002 23.8413 38.6882 22.2632 38.0818 20.7896Z" fill="#EEEEEE"/>
<path d="M11.9408 17.255C12.3147 21.3678 14.1401 24.9965 16.8311 27.4831C19.1719 29.6468 22.169 30.9457 25.4348 30.9457C25.5306 30.9457 25.6256 30.9457 25.7214 30.9457C31.356 30.8142 36.1496 26.8184 38.0818 21.2177C38.6593 22.6195 38.9707 24.1165 39 25.6323C39 25.5662 39 25.5009 39 25.4348C39.0002 23.8413 38.6882 22.2632 38.0818 20.7896C36.1454 26.3903 31.356 30.3861 25.7214 30.5217C25.6264 30.5217 25.5306 30.5217 25.4348 30.5217C22.169 30.5217 19.1719 29.2229 16.8311 27.0592C14.1401 24.5726 12.3147 20.9439 11.9408 16.8311C9.77714 19.1719 8.47827 22.169 8.47827 25.4348C8.47827 25.5009 8.47827 25.5662 8.47827 25.6323C8.53931 22.4538 9.82716 19.5416 11.9408 17.255Z" fill="white"/>
<path d="M25.4348 7.16634e-08C23.8413 -0.00017262 22.2632 0.311764 20.7896 0.918196C26.3903 2.85463 30.3861 7.644 30.5217 13.2787C30.5217 13.3736 30.5217 13.4694 30.5217 13.5652C30.5217 16.831 29.2229 19.8281 27.0592 22.169C24.5726 24.86 20.9439 26.6853 16.8311 27.0592C19.1719 29.2229 22.169 30.5217 25.4348 30.5217C25.5306 30.5217 25.6256 30.5217 25.7214 30.5217C31.356 30.3903 36.1496 26.3945 38.0818 20.7938C38.6937 19.0134 39.004 17.1434 39 15.2609C39 6.83263 32.927 7.16634e-08 25.4348 7.16634e-08Z" fill="#EEEEEE"/>
<path d="M17.255 27.0592C21.3678 26.6853 24.9965 24.86 27.4831 22.169C29.6468 19.8281 30.9457 16.831 30.9457 13.5652C30.9457 13.4694 30.9457 13.3745 30.9457 13.2787C30.8142 7.644 26.8184 2.85039 21.2177 0.918196C22.6195 0.340681 24.1165 0.0293065 25.6323 7.16634e-08C25.5662 7.16634e-08 25.5009 7.16634e-08 25.4348 7.16634e-08C23.8413 -0.00017262 22.2632 0.311764 20.7896 0.918196C26.3903 2.85463 30.3861 7.644 30.5217 13.2787C30.5217 13.3736 30.5217 13.4694 30.5217 13.5652C30.5217 16.831 29.2229 19.8281 27.0592 22.169C24.5726 24.86 20.9439 26.6853 16.8311 27.0592C19.1719 29.2229 22.169 30.5217 25.4348 30.5217C25.5009 30.5217 25.5662 30.5217 25.6323 30.5217C22.4538 30.4607 19.5416 29.1728 17.255 27.0592Z" fill="white"/>
</g>
<defs>
<clipPath id="clip0_14_229">
<rect width="39" height="39" fill="white"/>
</clipPath>
</defs>
</svg>
