<svg width="33" height="39" viewBox="0 0 33 39" fill="none" xmlns="http://www.w3.org/2000/svg">
<path d="M31.8256 9.34368L32.7358 7.09652C32.7358 7.09652 31.5907 5.85467 30.1815 4.43542C28.7722 3.01616 25.8069 3.84406 25.8069 3.84406L22.4306 0.000244141H10.5694L7.1637 3.87363C7.1637 3.87363 4.1984 3.04573 2.78915 4.46499C1.37989 5.88424 0.234875 7.12609 0.234875 7.12609L1.14502 9.37324L0 12.6848C0 12.6848 3.40569 25.6355 3.78737 27.2322C4.58007 30.3368 5.10854 31.5491 7.33986 33.1458C9.57117 34.7424 13.5934 37.4627 14.2687 37.8766C14.9146 38.2906 15.766 39.0002 16.5 39.0002C17.234 39.0002 18.0561 38.2906 18.7313 37.8766C19.3772 37.4627 23.4288 34.7129 25.6601 33.1458C27.8915 31.5787 28.4199 30.3664 29.2126 27.2322C29.6237 25.6355 33 12.6848 33 12.6848L31.8256 9.34368V9.34368Z" fill="#EEEEEE"/>
<path d="M24.8675 6.32747C24.8675 6.32747 29.2127 11.6201 29.2127 12.7733C29.2127 13.9264 28.6549 14.1925 28.097 14.7839C27.5392 15.3752 25.1317 17.9476 24.8381 18.2729C24.5152 18.5981 23.8986 19.1008 24.2509 20.0174C24.6326 20.9044 25.1904 22.0576 24.5739 23.2403C23.9573 24.3934 22.9004 25.1917 22.2251 25.0439C21.5499 24.9256 19.9351 24.0682 19.3479 23.6838C18.7607 23.2994 16.9111 21.7619 16.9111 21.1705C16.9111 20.5792 18.8488 19.5147 19.2011 19.2782C19.5534 19.0416 21.1682 18.0955 21.1976 17.7406C21.2269 17.3858 21.2269 17.2676 20.7278 16.351C20.2581 15.4344 19.3773 14.2221 19.5241 13.4237C19.6709 12.6254 21.0508 12.2115 22.049 11.8271C23.0472 11.4427 24.9556 10.7331 25.1904 10.6148C25.4253 10.4965 25.3666 10.4078 24.6326 10.3191C23.8986 10.26 21.8728 9.96431 20.9333 10.2304C19.9938 10.4965 18.4378 10.8809 18.291 11.0879C18.1735 11.2949 18.0561 11.2949 18.1735 12.0341C18.291 12.7437 18.9956 16.2327 19.0543 16.8536C19.113 17.4745 19.2598 17.8885 18.5846 18.0363C17.9387 18.1842 16.823 18.4503 16.4413 18.4503C16.0597 18.4503 14.944 18.1842 14.2981 18.0363C13.6522 17.8885 13.7696 17.4745 13.8283 16.8536C13.8871 16.2327 14.5623 12.7733 14.7091 12.0341C14.8266 11.3244 14.7385 11.2949 14.5917 11.0879C14.4743 10.8809 12.8888 10.4965 11.9493 10.2304C11.0098 9.96431 8.98404 10.2304 8.25005 10.3191C7.51607 10.3783 7.45735 10.4965 7.69222 10.6148C7.9271 10.7331 9.83546 11.4427 10.8337 11.8271C11.8319 12.2115 13.2118 12.6254 13.3586 13.4237C13.5054 14.2221 12.654 15.4344 12.1549 16.351C11.6851 17.2676 11.6557 17.3563 11.6851 17.7406C11.7145 18.0955 13.3292 19.0416 13.6815 19.2782C14.0339 19.5147 15.9716 20.5792 15.9716 21.1705C15.9716 21.7619 14.1219 23.2994 13.5347 23.6838C12.9476 24.0682 11.3622 24.8961 10.6575 25.0439C9.98226 25.1622 8.92532 24.3934 8.30877 23.2403C7.69222 22.0871 8.25005 20.934 8.63172 20.0174C9.0134 19.1303 8.36749 18.6277 8.04454 18.2729C7.72158 17.9476 5.34347 15.3752 4.78564 14.7839C4.22781 14.1925 3.69934 13.8968 3.69934 12.7733C3.69934 11.6497 8.04454 6.32747 8.04454 6.32747C8.04454 6.32747 11.7145 7.0371 12.2136 7.0371C12.7127 7.0371 13.7696 6.62315 14.7678 6.2979C15.7661 5.97266 16.412 5.97266 16.412 5.97266C16.412 5.97266 17.0579 5.97266 18.0561 6.2979C19.0543 6.62315 20.1113 7.0371 20.6104 7.0371C21.1095 7.0371 24.8675 6.32747 24.8675 6.32747V6.32747ZM21.6086 26.5814C21.8728 26.7588 21.726 27.0841 21.4618 27.2319C21.2269 27.4093 17.9093 29.9817 17.6157 30.2774C17.2928 30.5731 16.823 31.0166 16.5001 31.0166C16.1771 31.0166 15.7073 30.5435 15.3844 30.2774C15.0614 29.9817 11.7732 27.4093 11.5383 27.2319C11.3034 27.0545 11.1273 26.7293 11.3915 26.5814C11.6557 26.404 12.5072 25.9901 13.6522 25.3691C14.8266 24.7482 16.2652 24.2456 16.5001 24.2456C16.7349 24.2456 18.1735 24.7482 19.3479 25.3691C20.4929 25.9901 21.3444 26.4336 21.6086 26.5814V26.5814Z" fill="#FF2000"/>
<path d="M25.807 3.87338L22.4306 0H10.5694L7.16374 3.87338C7.16374 3.87338 4.19844 3.04549 2.78918 4.46474C2.78918 4.46474 6.75271 4.10993 8.10324 6.32751C8.10324 6.32751 11.7732 7.03714 12.2723 7.03714C12.7714 7.03714 13.8283 6.62319 14.8266 6.29795C15.8248 5.9727 16.4707 5.9727 16.4707 5.9727C16.4707 5.9727 17.1166 5.9727 18.1148 6.29795C19.113 6.62319 20.17 7.03714 20.6691 7.03714C21.1682 7.03714 24.8381 6.32751 24.8381 6.32751C26.1886 4.10993 30.1522 4.46474 30.1522 4.46474C28.7723 3.04549 25.807 3.87338 25.807 3.87338" fill="#EEEEEE"/>
</svg>
