<svg width="54" height="39" viewBox="0 0 54 39" fill="none" xmlns="http://www.w3.org/2000/svg">
<path d="M43.8481 5.04047C49.1562 12.8858 51.7776 21.7352 50.7976 31.9228C50.7935 31.9659 50.7712 32.0055 50.736 32.0315C46.7163 34.9986 42.8218 36.7993 38.9819 37.9934C38.952 38.0026 38.92 38.0021 38.8904 37.992C38.8608 37.9819 38.835 37.9628 38.8168 37.9373C37.9297 36.6965 37.1236 35.3884 36.4174 34.0146C36.3769 33.9337 36.4139 33.8363 36.4973 33.8044C37.7775 33.3195 38.9948 32.7384 40.1657 32.0504C40.2579 31.996 40.2638 31.8631 40.1786 31.7994C39.9301 31.6139 39.6839 31.419 39.4483 31.2241C39.4043 31.1881 39.3449 31.181 39.295 31.2052C31.6934 34.734 23.3661 34.734 15.6746 31.2052C15.6247 31.1828 15.5653 31.1905 15.5224 31.2259C15.2874 31.4208 15.0407 31.6139 14.7945 31.7994C14.7093 31.8631 14.7164 31.996 14.8092 32.0504C15.9801 32.7254 17.1974 33.3195 18.4758 33.8068C18.5586 33.8387 18.598 33.9337 18.5569 34.0146C17.866 35.3901 17.0599 36.6983 16.1564 37.9391C16.117 37.9893 16.0524 38.0123 15.9913 37.9934C12.1696 36.7993 8.27506 34.9986 4.25539 32.0315C4.2219 32.0055 4.19781 31.9641 4.19429 31.921C3.37531 23.1089 5.0444 14.1863 11.1374 5.0387C11.152 5.01448 11.1744 4.99558 11.2002 4.98436C14.1982 3.60121 17.4101 2.58363 20.767 2.00249C20.8281 1.99304 20.8892 2.02139 20.921 2.07572C21.3357 2.81396 21.8099 3.76067 22.1306 4.53433C25.6691 3.99099 29.2629 3.99099 32.8754 4.53433C33.1962 3.7772 33.6538 2.81396 34.0669 2.07572C34.0816 2.04877 34.1044 2.02717 34.132 2.01402C34.1596 2.00087 34.1907 1.99683 34.2208 2.00249C37.5795 2.5854 40.7914 3.60298 43.787 4.98436C43.8135 4.99558 43.8352 5.01448 43.8481 5.04047V5.04047ZM23.9296 21.7954C23.9666 19.1903 22.0772 17.0347 19.7054 17.0347C17.3531 17.0347 15.4819 19.1714 15.4819 21.7954C15.4819 24.4188 17.3901 26.5555 19.7054 26.5555C22.0584 26.5555 23.9296 24.4188 23.9296 21.7954V21.7954ZM39.5465 21.7954C39.5835 19.1903 37.6941 17.0347 35.3229 17.0347C32.97 17.0347 31.0988 19.1714 31.0988 21.7954C31.0988 24.4188 33.007 26.5555 35.3229 26.5555C37.6941 26.5555 39.5465 24.4188 39.5465 21.7954V21.7954Z" fill="#EEEEEE"/>
</svg>
