<svg width="39" height="39" viewBox="0 0 39 39" fill="none" xmlns="http://www.w3.org/2000/svg">
<path fill-rule="evenodd" clip-rule="evenodd" d="M25.8763 26.5061V13.9223C25.8763 13.4742 25.513 13.1108 25.0648 13.1108H12.4957V0.121521H38.04C38.4881 0.121521 38.8515 0.484845 38.8515 0.933027V26.5061H25.8763Z" fill="white"/>
<path opacity="0.404989" fill-rule="evenodd" clip-rule="evenodd" d="M12.4957 0.121521V13.1108H0.49932C0.275229 13.1108 0.0935669 12.9292 0.0935669 12.7051C0.0935669 12.5975 0.136255 12.4944 0.212253 12.4183L12.4957 0.121521Z" fill="white"/>
<path opacity="0.404989" fill-rule="evenodd" clip-rule="evenodd" d="M25.8763 38.515V26.506H38.8515L26.5691 38.8018C26.4107 38.9603 26.1538 38.9605 25.9953 38.8021C25.9191 38.726 25.8763 38.6227 25.8763 38.515Z" fill="white"/>
<path opacity="0.404989" fill-rule="evenodd" clip-rule="evenodd" d="M12.4957 13.1108H25.4705C25.6946 13.1108 25.8763 13.2925 25.8763 13.5166V26.5061H13.3072C12.859 26.5061 12.4957 26.1427 12.4957 25.6946V13.1108Z" fill="white"/>
</svg>
